<svg width="360" height="77" viewBox="0 0 360 77" fill="none" xmlns="http://www.w3.org/2000/svg">
<path d="M40.3636 48.0909V27.3036C35.52 25.0836 31.0127 22.3927 26.9091 19.2309V48.0909H40.3636ZM26.9091 75H13.4545V61.5455H0V48.0909H13.4545V1H26.9091V10.62C39.0182 21.1818 55.6346 27.9091 74 27.9091C92.3655 27.9091 108.982 21.1818 121.091 10.62V1H134.545V48.0909H148V61.5455H134.545V75H121.091V61.5455H26.9091V75ZM107.636 27.3036V48.0909H121.091V19.2309C116.987 22.3927 112.48 25.0836 107.636 27.3036ZM100.909 48.0909V30.0618C96.6036 31.6091 92.0964 32.7527 87.4545 33.56V48.0909H100.909ZM80.7273 48.0909V34.3673L74 34.6364L67.2727 34.3673V48.0909H80.7273ZM60.5455 48.0909V33.56C55.9036 32.7527 51.3964 31.6091 47.0909 30.0618V48.0909H60.5455Z" fill="white"/>
<path d="M159.318 15.4545H170.341L180.955 35.5H181.409L192.023 15.4545H203.045L186.068 45.5455V62H176.295V45.5455L159.318 15.4545ZM216.835 62.6818C213.244 62.6818 210.153 61.9545 207.562 60.5C204.987 59.0303 203.002 56.9545 201.608 54.2727C200.214 51.5758 199.517 48.3864 199.517 44.7045C199.517 41.1136 200.214 37.9621 201.608 35.25C203.002 32.5379 204.964 30.4242 207.494 28.9091C210.04 27.3939 213.025 26.6364 216.449 26.6364C218.752 26.6364 220.896 27.0076 222.881 27.75C224.881 28.4773 226.623 29.5758 228.108 31.0455C229.608 32.5152 230.775 34.3636 231.608 36.5909C232.441 38.803 232.858 41.3939 232.858 44.3636V47.0227H203.381V41.0227H223.744C223.744 39.6288 223.441 38.3939 222.835 37.3182C222.229 36.2424 221.388 35.4015 220.312 34.7955C219.252 34.1742 218.017 33.8636 216.608 33.8636C215.138 33.8636 213.835 34.2045 212.699 34.8864C211.578 35.553 210.699 36.4545 210.062 37.5909C209.426 38.7121 209.1 39.9621 209.085 41.3409V47.0455C209.085 48.7727 209.403 50.2652 210.04 51.5227C210.691 52.7803 211.608 53.75 212.79 54.4318C213.972 55.1136 215.373 55.4545 216.994 55.4545C218.07 55.4545 219.055 55.303 219.949 55C220.843 54.697 221.608 54.2424 222.244 53.6364C222.881 53.0303 223.366 52.2879 223.699 51.4091L232.653 52C232.199 54.1515 231.267 56.0303 229.858 57.6364C228.464 59.2273 226.661 60.4697 224.449 61.3636C222.252 62.2424 219.714 62.6818 216.835 62.6818ZM257.949 27.0909V34.3636H236.403V27.0909H257.949ZM241.335 62V24.5682C241.335 22.0379 241.828 19.9394 242.812 18.2727C243.812 16.6061 245.176 15.3561 246.903 14.5227C248.631 13.6894 250.593 13.2727 252.79 13.2727C254.275 13.2727 255.631 13.3864 256.858 13.6136C258.1 13.8409 259.025 14.0455 259.631 14.2273L257.903 21.5C257.525 21.3788 257.055 21.2651 256.494 21.1591C255.949 21.053 255.388 21 254.812 21C253.388 21 252.396 21.3333 251.835 22C251.275 22.6515 250.994 23.5682 250.994 24.75V62H241.335ZM269.841 75.0909C268.614 75.0909 267.462 74.9924 266.386 74.7955C265.326 74.6136 264.447 74.3788 263.75 74.0909L265.932 66.8636C267.068 67.2121 268.091 67.4015 269 67.4318C269.924 67.4621 270.72 67.25 271.386 66.7955C272.068 66.3409 272.621 65.5682 273.045 64.4773L273.614 63L261.091 27.0909H271.273L278.5 52.7273H278.864L286.159 27.0909H296.409L282.841 65.7727C282.189 67.6515 281.303 69.2879 280.182 70.6818C279.076 72.0909 277.674 73.1742 275.977 73.9318C274.28 74.7045 272.235 75.0909 269.841 75.0909ZM301.364 62V27.0909H310.75V33.1818H311.114C311.75 31.0152 312.818 29.3788 314.318 28.2727C315.818 27.1515 317.545 26.5909 319.5 26.5909C319.985 26.5909 320.508 26.6212 321.068 26.6818C321.629 26.7424 322.121 26.8258 322.545 26.9318V35.5227C322.091 35.3864 321.462 35.2652 320.659 35.1591C319.856 35.053 319.121 35 318.455 35C317.03 35 315.758 35.3106 314.636 35.9318C313.53 36.5379 312.652 37.3864 312 38.4773C311.364 39.5682 311.045 40.8258 311.045 42.25V62H301.364ZM336.506 62.6591C334.278 62.6591 332.294 62.2727 330.551 61.5C328.809 60.7121 327.43 59.553 326.415 58.0227C325.415 56.4773 324.915 54.553 324.915 52.25C324.915 50.3106 325.271 48.6818 325.983 47.3636C326.695 46.0455 327.665 44.9848 328.892 44.1818C330.119 43.3788 331.513 42.7727 333.074 42.3636C334.65 41.9545 336.301 41.6667 338.028 41.5C340.059 41.2879 341.695 41.0909 342.938 40.9091C344.18 40.7121 345.081 40.4242 345.642 40.0455C346.203 39.6667 346.483 39.1061 346.483 38.3636V38.2273C346.483 36.7879 346.028 35.6742 345.119 34.8864C344.225 34.0985 342.953 33.7045 341.301 33.7045C339.559 33.7045 338.172 34.0909 337.142 34.8636C336.112 35.6212 335.43 36.5758 335.097 37.7273L326.142 37C326.597 34.8788 327.491 33.0455 328.824 31.5C330.157 29.9394 331.877 28.7424 333.983 27.9091C336.104 27.0606 338.559 26.6364 341.347 26.6364C343.286 26.6364 345.142 26.8636 346.915 27.3182C348.703 27.7727 350.286 28.4773 351.665 29.4318C353.059 30.3864 354.157 31.6136 354.96 33.1136C355.763 34.5985 356.165 36.3788 356.165 38.4545V62H346.983V57.1591H346.71C346.15 58.25 345.4 59.2121 344.46 60.0455C343.521 60.8636 342.392 61.5076 341.074 61.9773C339.756 62.4318 338.233 62.6591 336.506 62.6591ZM339.278 55.9773C340.703 55.9773 341.96 55.697 343.051 55.1364C344.142 54.5606 344.998 53.7879 345.619 52.8182C346.241 51.8485 346.551 50.75 346.551 49.5227V45.8182C346.248 46.0152 345.831 46.197 345.301 46.3636C344.786 46.5152 344.203 46.6591 343.551 46.7955C342.9 46.9167 342.248 47.0303 341.597 47.1364C340.945 47.2273 340.354 47.3106 339.824 47.3864C338.688 47.553 337.695 47.8182 336.847 48.1818C335.998 48.5455 335.339 49.0379 334.869 49.6591C334.4 50.2652 334.165 51.0227 334.165 51.9318C334.165 53.25 334.642 54.2576 335.597 54.9545C336.566 55.6364 337.794 55.9773 339.278 55.9773Z" fill="white"/>
</svg>
