<svg width="337" height="78" viewBox="0 0 337 78" fill="none" xmlns="http://www.w3.org/2000/svg">
<path d="M40.3636 48.0909V27.3036C35.52 25.0836 31.0127 22.3927 26.9091 19.2309V48.0909H40.3636ZM26.9091 75H13.4545V61.5455H0V48.0909H13.4545V1H26.9091V10.62C39.0182 21.1818 55.6346 27.9091 74 27.9091C92.3655 27.9091 108.982 21.1818 121.091 10.62V1H134.545V48.0909H148V61.5455H134.545V75H121.091V61.5455H26.9091V75ZM107.636 27.3036V48.0909H121.091V19.2309C116.987 22.3927 112.48 25.0836 107.636 27.3036ZM100.909 48.0909V30.0618C96.6036 31.6091 92.0964 32.7527 87.4545 33.56V48.0909H100.909ZM80.7273 48.0909V34.3673L74 34.6364L67.2727 34.3673V48.0909H80.7273ZM60.5455 48.0909V33.56C55.9036 32.7527 51.3964 31.6091 47.0909 30.0618V48.0909H60.5455Z" fill="white"/>
<path d="M192.624 19.48L179.312 45.528V63H171.632V45.656L158.192 19.48H166.384L175.792 38.04L184.688 19.48H192.624ZM219.321 61.144C217.102 62.04 215.012 62.68 213.049 63.064C211.086 63.448 209.23 63.64 207.481 63.64C202.66 63.64 199.012 62.2747 196.537 59.544C194.062 56.8133 192.825 53.1867 192.825 48.664V44.824C192.825 41.7947 193.38 39.1707 194.489 36.952C195.598 34.7333 197.177 33.0053 199.225 31.768C201.273 30.5307 203.684 29.912 206.457 29.912C208.718 29.912 210.83 30.3813 212.793 31.32C214.798 32.216 216.42 33.6453 217.657 35.608C218.937 37.528 219.577 40.0027 219.577 43.032C219.577 43.928 219.513 44.888 219.385 45.912C219.257 46.8933 219.044 47.9387 218.745 49.048H199.929C200.014 51.6933 200.676 53.6773 201.913 55C203.15 56.3227 205.134 56.984 207.865 56.984C209.316 56.984 210.809 56.8133 212.345 56.472C213.924 56.1307 215.545 55.6187 217.209 54.936L219.321 61.144ZM206.457 36.12C204.494 36.12 202.958 36.76 201.849 38.04C200.782 39.2773 200.164 41.0693 199.993 43.416H212.281C212.324 43.2027 212.345 43.0107 212.345 42.84C212.345 42.6267 212.345 42.4347 212.345 42.264C212.345 40.216 211.769 38.68 210.617 37.656C209.465 36.632 208.078 36.12 206.457 36.12ZM246.808 36.952H236.696V63H229.336V36.952H224.088V30.552H229.336V27.16C229.336 23.6187 230.232 20.7173 232.024 18.456C233.816 16.152 236.696 15 240.664 15C242.115 15 243.608 15.1493 245.144 15.448C246.68 15.7467 248.067 16.1307 249.304 16.6L247.512 22.936C245.464 22.2533 243.629 21.912 242.008 21.912C240.301 21.912 238.979 22.296 238.04 23.064C237.144 23.7893 236.696 25.1547 236.696 27.16V30.552H246.808V36.952ZM265.301 66.2C263.893 70.1253 262.101 72.9413 259.925 74.648C257.749 76.3973 254.762 77.272 250.965 77.272V69.912C253.226 69.8267 254.997 69.3147 256.277 68.376C257.6 67.48 258.581 66.2213 259.221 64.6L259.797 63.128L248.213 30.552H255.509L261.077 46.744L263.253 53.592L265.365 46.744L270.677 30.552H277.973L265.301 66.2ZM302.423 37.272C300.417 37.272 298.497 37.592 296.663 38.232C294.871 38.8293 293.143 39.8107 291.479 41.176V63H284.119V30.552H291.095V35.544C293.271 33.496 295.212 32.0453 296.919 31.192C298.625 30.3387 300.46 29.912 302.423 29.912V37.272ZM333.445 63.32C331.269 63.32 329.519 62.872 328.197 61.976C326.917 61.08 325.978 59.9707 325.381 58.648C323.546 60.3547 321.775 61.6133 320.069 62.424C318.362 63.2347 316.527 63.64 314.565 63.64C311.706 63.64 309.594 62.7227 308.229 60.888C306.906 59.0533 306.245 56.728 306.245 53.912C306.245 52.0347 306.586 50.392 307.269 48.984C307.994 47.5333 309.167 46.4027 310.789 45.592C312.41 44.7813 314.629 44.376 317.445 44.376C318.554 44.376 319.706 44.4613 320.901 44.632C322.095 44.76 323.29 44.9307 324.485 45.144V41.368C324.485 39.576 323.994 38.36 323.013 37.72C322.031 37.0373 320.709 36.696 319.045 36.696C317.765 36.696 316.357 36.8667 314.821 37.208C313.327 37.5493 311.706 38.0827 309.957 38.808L307.845 32.536C312.154 30.7867 316.058 29.912 319.557 29.912C322.714 29.912 325.146 30.4453 326.853 31.512C328.602 32.5787 329.818 33.9867 330.501 35.736C331.183 37.4853 331.525 39.3627 331.525 41.368V53.848C331.525 54.488 331.695 55.1067 332.037 55.704C332.421 56.2587 333.146 56.536 334.213 56.536H334.917V63.32H333.445ZM313.349 53.784C313.349 54.936 313.605 55.8533 314.117 56.536C314.629 57.176 315.375 57.496 316.357 57.496C317.338 57.496 318.447 57.24 319.685 56.728C320.922 56.216 322.522 55.0213 324.485 53.144V50.392C322.266 50.008 320.09 49.816 317.957 49.816C316.293 49.816 315.098 50.1573 314.373 50.84C313.69 51.5227 313.349 52.504 313.349 53.784Z" fill="white"/>
</svg>
