<svg width="148" height="74" viewBox="0 0 148 74" fill="none" xmlns="http://www.w3.org/2000/svg">
<path d="M40.3636 47.0909V26.3036C35.52 24.0836 31.0127 21.3927 26.9091 18.2309V47.0909H40.3636ZM26.9091 74H13.4545V60.5455H0V47.0909H13.4545V0H26.9091V9.62C39.0182 20.1818 55.6346 26.9091 74 26.9091C92.3655 26.9091 108.982 20.1818 121.091 9.62V0H134.545V47.0909H148V60.5455H134.545V74H121.091V60.5455H26.9091V74ZM107.636 26.3036V47.0909H121.091V18.2309C116.987 21.3927 112.48 24.0836 107.636 26.3036ZM100.909 47.0909V29.0618C96.6036 30.6091 92.0964 31.7527 87.4545 32.56V47.0909H100.909ZM80.7273 47.0909V33.3673L74 33.6364L67.2727 33.3673V47.0909H80.7273ZM60.5455 47.0909V32.56C55.9036 31.7527 51.3964 30.6091 47.0909 29.0618V47.0909H60.5455Z" fill="white"/>
</svg>
